<svg xmlns="http://www.w3.org/2000/svg" viewBox="0 0 431.17 430.11"><defs><style>.cls-1{fill:none;stroke:#2299d6;stroke-miterlimit:10;stroke-width:16px;}.cls-2{fill:#2299d6;}</style></defs><title>500_new_User</title><g id="Layer_1" data-name="Layer 1"><polyline class="cls-1" points="253.82 57.62 245.82 10.62 183.82 10.62 175.82 57.62 125.7 82.47 88.45 53.04 50.81 88.84 78.34 127.51 55 181.4 8.04 188.41 8.38 240.35 55.43 246.75 78.34 300.64 50.81 339.31 88.45 375.12 125.7 345.68 175.82 375.12 183.82 422.12 245.82 422.12 253.82 375.12"/><polyline class="cls-1" points="177.35 55 185.35 8 247.35 8 255.35 55 305.47 79.86 342.72 50.42 380.36 86.22 352.83 124.9 376.17 178.78 423.12 185.79 422.79 237.74 375.74 244.14 352.83 298.02 380.36 336.7 342.72 372.5 305.47 343.06 255.35 372.5 247.35 419.5 185.35 419.5 177.35 372.5"/></g><g id="Layer_2" data-name="Layer 2"><ellipse class="cls-2" cx="214.32" cy="143.87" rx="63" ry="90.75"/><path class="cls-2" d="M250,294.5c3.82-.15,18.67-.75,31.5-10.5,8.88-6.75,12.35-14.51,18-13.5,4.5.8,4.41,6.1,12,13.5,3.62,3.53,7.92,5.85,16.5,10.5A168.78,168.78,0,0,0,350.5,305a159.77,159.77,0,0,0,27,7.5l3,54h-132" transform="translate(-34.18 -34.38)"/><path class="cls-2" d="M250,294.5c-3.82-.15-18.67-.75-31.5-10.5-8.88-6.75-12.35-14.51-18-13.5-4.5.8-4.41,6.1-12,13.5-3.62,3.53-7.92,5.85-16.5,10.5A168.78,168.78,0,0,1,149.5,305a159.77,159.77,0,0,1-27,7.5l-3,54h132" transform="translate(-34.18 -34.38)"/></g></svg>