<svg id="Layer_2" data-name="Layer 2" xmlns="http://www.w3.org/2000/svg" viewBox="0 0 43.86 35.18"><defs><style>.cls-1{fill:#c6c6c6;}</style></defs><title>50_APAC</title><path class="cls-1" d="M13.58,37.52c-1.36.26-1.45.57-2,.44a3.28,3.28,0,0,1-1.31-.87h0c0-.07.63-.29.87-.7.12-.21.1-.4,0-1a19.37,19.37,0,0,0-.35-2c-.22-.57-.35-.54-.7-1.4L9.73,31h0a4.23,4.23,0,0,1,0-2,2.56,2.56,0,0,1,1.14-1.22c1.58-1.08,2.53-.41,3.5-1.4a7.68,7.68,0,0,0,1-1.57h0c-1.58,1,1.13-.72,1.31-.87.44-.37.32-.4.7-.7a2.1,2.1,0,0,1,1.4-.61c.46,0,.54.33.87.26s.41-.43.87-.87a3.14,3.14,0,0,1,1-.61,5.42,5.42,0,0,1,2.36-.26c1,0,1.11.1,1.14.17.1.31-1.14.69-1.14,1.31,0,.37.45.6,1.75,1.4.73.45,1.31.82,1.66,1a2.6,2.6,0,0,0,.87-1.4,5.53,5.53,0,0,0,0-1.57h0s.15-1.52.52-1.57.67.8.7.87c.23.52.11.67.35,1s.38.33.7.7a3.24,3.24,0,0,1,.52,1c.44,1.06.66,1.59.79,1.84.37.71.68.73,1.75,1.75a8.16,8.16,0,0,1,2.1,2.54,5.73,5.73,0,0,1,.44,2.89,12,12,0,0,1-1,3c-.91,2.29-1,1.83-1.49,3.24a2,2,0,0,1-.52,1,4.16,4.16,0,0,1-1.75.61,7.06,7.06,0,0,1-.87.17,4,4,0,0,1-1.66-.17c-1-.39-.81-1.19-2.1-2.36-.58-.53-.56-.32-1.57-1.14s-1.06-1-1.84-1.57A3.43,3.43,0,0,0,21.37,35c-.8,0-.88.51-2.1,1s-1.46,0-2.62.52a9,9,0,0,1-1.84.87C14.31,37.47,14.32,37.38,13.58,37.52Z" transform="translate(-1.75 -7.37)"/><path class="cls-1" d="M43,35.2a2.87,2.87,0,0,0,.4-1.43,1.64,1.64,0,0,0,0-.23,3.09,3.09,0,0,0-1-1.4h0l2.71,2.1h0s.61.6.52,1-.47.3-1,.79-.52,1.12-.79,1.14S42.71,36.08,43,35.2Z" transform="translate(-1.75 -7.37)"/><path class="cls-1" d="M41.23,36.68c.32-.2,1.32.4,1.4,1.14,0,.33-.12.6-.44,1.14a9.16,9.16,0,0,1-.7,1c-.48.63-.72.94-.79,1-.56.9-.4,1.28-.79,1.49A1.72,1.72,0,0,1,37.82,41c.05-.73,1-1.21,1.66-1.57,1-.5,1.29-.37,1.57-.79C41.56,37.87,40.88,36.9,41.23,36.68Z" transform="translate(-1.75 -7.37)"/><path class="cls-1" d="M10.85,11.71c.32-.12.63.54,1.14.44s.42-.56,1-1.22c.4-.49.5-.36,1.57-1.22s1.08-1,1.49-1c.6,0,1.26.58,1.22,1s-1,.69-1,1.22.76.61.79,1.14-.37.52-.79,1c-.82,1-.32,1.79-1,2.27s-1.24.21-2.54-.09a3.14,3.14,0,0,1-1.57-.61C10.15,13.77,10.35,11.9,10.85,11.71Z" transform="translate(-1.75 -7.37)"/><path class="cls-1" d="M25.54,13.37c.41-.22,2.15,2.34,2.36,2.19s-.09-.61-.09-.61h0a10.91,10.91,0,0,1,1.92-.7,4.28,4.28,0,0,1,1.31-.17c.56,0,1,.25,3.06,1.92,1.54,1.27,1.09,1,1.84,1.57a6.42,6.42,0,0,1,1.66,1.57c.25.37.61.9.44,1.14s-1.65,0-2.71-.7-1.26-1.37-1.84-1.31c-.73.07-.84,1.19-1.57,1.22s-1.18-.74-1.4-1c-.6-.84-.42-1.36-.87-1.57s-.93.38-1.75.26a2.37,2.37,0,0,1-1.4-1C25.57,15.08,25.25,13.53,25.54,13.37Z" transform="translate(-1.75 -7.37)"/><path class="cls-1" d="M8.92,17.31c.12-.49,2.3-.34,3.67,0,1.09.27,1.47.61,1.66,1s.32.86.09,1.14C13.59,20.32,8.74,18.08,8.92,17.31Z" transform="translate(-1.75 -7.37)"/><path class="cls-1" d="M17.5,13.72c-.57.51-.27,1.59-.17,1.92.16.56.53,1.27.79,1.22s.35-1.92.52-1.92,0,1.19.7,1.75a1.16,1.16,0,0,0,1.31.17c.49-.44.12-2.11-1-2.89C19.1,13.57,18,13.23,17.5,13.72Z" transform="translate(-1.75 -7.37)"/><path class="cls-1" d="M1.75,10.14h0A14.21,14.21,0,0,1,4.2,12.85a37.46,37.46,0,0,0,2.36,3.32c.86,1.05,1.11,1.19,1.31,1.14.55-.15.88-1.82.35-3.15-.28-.69-.71-1.09-3-2.8-.92-.69-1.72-1.28-2.36-1.75" transform="translate(-1.75 -7.37)"/><path class="cls-1" d="M4.9,7.54c1.76.57,2.35,2.59,2.54,3.21.12.4.25.85.09,1s-1.28-.82-2.27-1.84C4,8.63,3.3,7.87,3.5,7.54S4.47,7.4,4.9,7.54Z" transform="translate(-1.75 -7.37)"/></svg>