<svg id="Layer_2" data-name="Layer 2" xmlns="http://www.w3.org/2000/svg" xmlns:xlink="http://www.w3.org/1999/xlink" viewBox="0 0 32.32 36.82"><defs><style>.cls-1{fill:none;}.cls-1,.cls-2{stroke:#c6c6c6;stroke-miterlimit:10;}.cls-2,.cls-4{fill:#c6c6c6;}.cls-3{fill:url(#linear-gradient);}</style><linearGradient id="linear-gradient" x1="16.16" y1="15.27" x2="16.16" y2="15.27" gradientUnits="userSpaceOnUse"><stop offset="0" stop-color="#fff"/><stop offset="1"/></linearGradient></defs><title>50_Clock</title><circle class="cls-1" cx="16.16" cy="20.66" r="15.66"/><path class="cls-2" d="M17.49,6.92a3.89,3.89,0,0,1,1.14,1.84l-6.74,3.5L8.4,14.19a3.89,3.89,0,0,1-1.14-2.45C7.18,10,8.5,8.85,9.18,8.24,11.4,6.25,15.4,5.11,17.49,6.92Z" transform="translate(-5.53 -5.51)"/><path class="cls-2" d="M26.09,6.92A3.89,3.89,0,0,0,25,8.76l6.74,3.5,3.5,1.92a3.89,3.89,0,0,0,1.14-2.45c.08-1.7-1.24-2.88-1.92-3.5C32.19,6.25,28.18,5.11,26.09,6.92Z" transform="translate(-5.53 -5.51)"/><line class="cls-3" x1="16.16" y1="8.53" x2="16.16" y2="22.01"/><path class="cls-4" d="M20.44,14V27.52a1.25,1.25,0,0,0,2.5,0V14a1.25,1.25,0,0,0-2.5,0Z" transform="translate(-5.53 -5.51)"/><path class="cls-4" d="M28.51,29.47l-6.18-3c-1.44-.7-2.71,1.45-1.26,2.16l6.18,3c1.44.7,2.71-1.45,1.26-2.16Z" transform="translate(-5.53 -5.51)"/></svg>