<svg xmlns="http://www.w3.org/2000/svg" viewBox="0 0 51.36 49.98"><defs><style>.cls-1{fill:#fff;}.cls-2{fill:#c6c6c6;}.cls-3{fill:none;stroke:#b2b2b2;stroke-miterlimit:10;stroke-width:2px;}.cls-4{fill:#0796cb;}.cls-5{fill:#a8cb5e;}</style></defs><title>50_dash</title><g id="Layer_1" data-name="Layer 1"><line class="cls-1" x1="0.63" y1="25.37" x2="25.37" y2="0.63"/><path class="cls-2" d="M.34,25.9,25.08,1.16a.63.63,0,0,0-.88-.88L-.55,25a.63.63,0,0,0,.88.88Z" transform="translate(0.73 -0.09)"/><line class="cls-1" x1="50.74" y1="25.37" x2="26" y2="0.63"/><path class="cls-2" d="M50.45,25,25.71.28a.63.63,0,0,0-.88.88L49.56,25.9a.63.63,0,0,0,.88-.88Z" transform="translate(0.73 -0.09)"/><line class="cls-1" x1="13.47" y1="18.21" x2="25.84" y2="5.84"/><path class="cls-2" d="M13.18,18.74,25.55,6.37a.63.63,0,0,0-.88-.88L12.29,17.86a.63.63,0,0,0,.88.88Z" transform="translate(0.73 -0.09)"/><line class="cls-1" x1="38.52" y1="18.21" x2="26.15" y2="5.84"/><path class="cls-2" d="M38.23,17.86,25.86,5.49a.63.63,0,0,0-.88.88L37.35,18.74a.63.63,0,0,0,.88-.88Z" transform="translate(0.73 -0.09)"/><rect class="cls-3" x="19.6" y="17.57" width="13.11" height="19.42" rx="6.55" ry="6.55"/></g><g id="Layer_2" data-name="Layer 2"><path class="cls-4" d="M42.65,25.56C42.65,35,34.74,42.63,25,42.63S7.33,35,7.33,25.56l-7.56.13C-.23,39.16,11.07,50.07,25,50.07S50.23,39.16,50.23,25.69Z" transform="translate(0.73 -0.09)"/><path class="cls-5" d="M2.56,34c.2.36.62.14,1.16.55.81.62.5,1.6,1.1,1.89a1.71,1.71,0,0,0,1.83-.79c.63-1,.09-2.38-.12-2.93-.29-.76-.54-.88-.52-1.37,0-1,1.05-1.43.88-1.8s-1.22-.4-2,.06c-.45.26-.54.53-1.43,2.16C2.64,33.24,2.37,33.64,2.56,34Z" transform="translate(0.73 -0.09)"/><path class="cls-5" d="M11.9,45.23c.2.36.62.14,1.16.55.81.62.5,1.6,1.1,1.89A1.71,1.71,0,0,0,16,46.88c.63-1,.09-2.38-.12-2.93-.29-.76-.54-.88-.52-1.37,0-1,1.05-1.43.88-1.8s-1.22-.4-2,.06c-.45.26-.54.53-1.43,2.16C12,44.49,11.7,44.89,11.9,45.23Z" transform="translate(0.73 -0.09)"/><path class="cls-5" d="M37.27,43.49c.83,2.15-2.9,4.78-3.36,4.4-6.2-5-3-5.46-1.18-4.4.58.33.52-1.09,1.15-1.09S34.87,37.24,37.27,43.49Z" transform="translate(0.73 -0.09)"/><path class="cls-5" d="M49.19,30.72c0,.93-4,1.68-4.94,1.68a1.68,1.68,0,1,1,0-3.36C45.17,29,49.19,29.79,49.19,30.72Z" transform="translate(0.73 -0.09)"/></g></svg>