<svg id="Layer_2" data-name="Layer 2" xmlns="http://www.w3.org/2000/svg" viewBox="0 0 43.19 48.5"><defs><style>.cls-1{fill:#c6c6c6;}</style></defs><title>50_india</title><path class="cls-1" d="M37.88,26.38" transform="translate(-3.81 -0.75)"/><path class="cls-1" d="M6.69,17.13l.75.38,1.44-.37,1-1.81.75-.44.69-1.25.44-.37,1.13-1.44V10.25l1.06-.69-.69-.69V8.56l-1.62-.75L11.31,5.5l.94-1.25-.69-.5-.94-.87c-.07,0-.48.18-.69,0s-.06-.79.19-1.12.53-.47,1.44-.69A12.34,12.34,0,0,1,13.81.75L15.5,1.88,17,3.31a1.85,1.85,0,0,0,1.19.13c.46-.12.52-.38.94-.56a2,2,0,0,1,2.31.56,1.58,1.58,0,0,1,.13,1.19c-.1.38-.45.74-1.12,1.44l-.5.5-.31.5.9,1.31-.72.75-1-.31a11.45,11.45,0,0,1,.44,1.06c.06.25.19,1.06.19,1.06l1.88,1.13,1.44,1.31-1.44,2.19,4.25,1.94,1,.63h1l1.63.63,2.25.81H33.5a5.53,5.53,0,0,1,0-1.87c.08-.43.15-.81.38-.87s.69.31.81.75-.16.69,0,1c0,.09.19.3,1.19.44a8.08,8.08,0,0,0,1.56.06,15.94,15.94,0,0,0,2.06-.25v-.75l-.69-.37,1.69-.56,1.25-1.25,1.31-1,1.44.25.75-.12.5-.31.69,1.19.56.88v1.31l-1.5.38-1.31,1.13-.06.81-.62.94-.19,1.06-.62,1.31-1.19.43-.19.88-.31.44.44.94-.81.5L39.5,25l.56-1.69L39.13,25h-.94l.13-1.69.38-1,.13-1.44-2.87.63L36,19.94l-1.56-.06-.69.38,1.13,1.25-1.19.75.19,1.25.56,1.5.44,2.75-2-.31-1.12.75-.19,1.25-.94,1.25-1.12.38L27.13,33.5l-2.87,2.69-2.94,1.69.06,2.75.25,1.69-1.1,1.44L21,45.69h-.81l-.37,1.38-1.25.88-1.62,1.31-1.12-.44L12.13,37.69,9.44,28.13l-1.12,1-1.62-.19L4.56,26.38H5.88l.94-.87-.94.19H4.56L3.81,25l.44-1.5,1.56-.06,1.13.13.69-.87-.87-1.56-.69-.94v-.62L5,19Z" transform="translate(-3.81 -0.75)"/></svg>