<svg id="Layer_2" data-name="Layer 2" xmlns="http://www.w3.org/2000/svg" viewBox="0 0 47.36 42.61"><defs><style>.cls-1{fill:#c6c6c6;}</style></defs><title>50_MEA</title><path class="cls-1" d="M8.06,4.5c1.26-.31,2.4,2.59,4.22,2.23.83-.17.8-.82,1.76-1.06S15.54,6,18,7a7.54,7.54,0,0,0,3,.82C22.59,7.65,23,6.7,23.89,7s.7,1.26,2.11,2.58c.47.44,1.52,1.43,2.46,1.17s.84-1.15,1.41-1.17c.78,0,.87,1.76,2.34,2.81a4.82,4.82,0,0,0,3.28.7c1.7-.19,1.83-1.07,3.87-1.64.9-.25,2.69-.75,4.1.12a4.8,4.8,0,0,1,1.76,2.7c.54,1.41.41,2,.94,5.28.47,2.94.71,3.38,1.06,3.75.84.92,2,1.12,2,1.88,0,.24-.11.3-.7,1.29-.75,1.25-.62,1.24-.82,1.41-.75.62-1.45-.13-3.28.23-.94.19-1.33.5-1.76.23S42.15,27,41.83,27s-.48.83-.82.82-.28-.49-.59-.82c-.73-.79-2.14.33-3.63-.23a14.45,14.45,0,0,1-2.11-2c-1.21-1.23-1.54-1.63-2.23-1.76a2.07,2.07,0,0,0-1.76.47,2.38,2.38,0,0,0-.23,2.23c.32.92.84.82,2.46,2.46.85.87,1.18,1.37,1.64,1.29s.87-1.12,1.06-1.06-.36,1.23.12,2a2.31,2.31,0,0,0,2.7.59c1.25-.59,1.14-2.25,2-2.34.57-.06.63.68,1.88,1.41s1.66.4,2.58,1.17a2.81,2.81,0,0,1,.94,1.17c.47,1.31-.65,2.8-1.29,3.63a13.86,13.86,0,0,1-3.87,3.28c-4.22,2.75-3.26,2.47-5.63,3.87-3.58,2.12-8.35,4.94-10,3.52-.79-.69,0-1.68-.94-4.45a14.32,14.32,0,0,0-1.88-3.63c-1.58-2.21-2.47-2.11-3-3.75-.49-1.39.05-1.75-.59-3.17-.51-1.13-.89-1-1.88-2.58-.66-1.07-.65-1.4-1.52-2.81-.56-.91-1.16-1.87-1.52-1.76s-.17,1.45-.47,1.52c-.49.12-1.64-3.21-1.76-3.17a45.34,45.34,0,0,0,1.76,5.63,17.47,17.47,0,0,0,1.41,3.4c.89,1.51,1.72,2.19,1.52,2.46s-2-1-5-1.41c-1.29-.16-1.24.07-3.63,0C4.33,32.9,2.7,32.83,2,31.81c-.24-.38-.24-.72,0-2.7.33-2.71.57-4,.75-5.28.49-3.49.25-4.8.94-5s1,.8,2.81,1.52c.47.19,2.7,1.08,4,.12.66-.49.33-.92,1.29-1.88a10.69,10.69,0,0,1,1.88-1.41h0s-1.12-.77-1.06-1.41c0-.46.67-.46.82-.94.22-.69-.65-1.94-1.76-2.23s-2,.81-3.17.35a2.27,2.27,0,0,1-1.06-1.06C6,9.42,6.58,4.86,8.06,4.5Z" transform="translate(-1.86 -4.48)"/></svg>