<svg id="Layer_2" data-name="Layer 2" xmlns="http://www.w3.org/2000/svg" viewBox="0 0 24.48 34.13"><defs><style>.cls-1{fill:#ffd600;stroke:#ffd600;stroke-miterlimit:10;stroke-width:2px;}.cls-2{fill:#3c3c3b;}.cls-3{fill:#225ca8;}</style></defs><title>50_sabencos_trd</title><path class="cls-1" d="M23.62,39.58c-.41,0-7.13-.43-9.09-3.87a3.9,3.9,0,0,1-.52-2l-.09-18.62,2.73,3.1.08,15.51,3.31-.1L20,18.08,22.66,15l.09,18.62h1.42l-.09-18.62L26.81,18l.08,15.51,2.9.12.16-15.51,2.74-3.11L32.5,33.68a3.92,3.92,0,0,1-.53,2c-2,3.44-8.7,3.86-9.11,3.89" transform="translate(-11.09 -12.27)"/><path class="cls-2" d="M21.46,40.08c-3.63.2-8.1,1.21-10.17,4.49-.86,1.37,1.3,2.62,2.16,1.26,1.54-2.44,5.33-3.1,8-3.25,1.6-.09,1.61-2.59,0-2.5Z" transform="translate(-11.09 -12.27)"/><path class="cls-2" d="M25.2,42.4c2.68.15,6.47.81,8,3.25.86,1.36,3,.1,2.16-1.26-2.06-3.28-6.54-4.28-10.17-4.49-1.61-.09-1.6,2.41,0,2.5Z" transform="translate(-11.09 -12.27)"/><circle class="cls-3" cx="23.31" cy="40.74" r="2.88" transform="translate(-34.68 26.43) rotate(-57.74)"/></svg>