<svg id="Layer_1" data-name="Layer 1" xmlns="http://www.w3.org/2000/svg" viewBox="0 0 50.27 32.77"><defs><style>.cls-1{fill:#c6c6c6;stroke:#c6c6c6;}.cls-1,.cls-2{stroke-miterlimit:10;}.cls-2{fill:none;stroke:#e30613;}</style></defs><title>50_USA</title><path class="cls-1" d="M23.39,41.73c-.23-.09-.16-.23-1-1.5-.67-1-.74-1-1.12-1.62-.62-1.06-.52-1.34-.87-1.5-.59-.26-1,.45-2.25.5a2,2,0,0,1-1.5-.37c-.42-.42-.17-.89-.5-1.62a2.87,2.87,0,0,0-1.37-1.37c-1.25-.57-1.93.55-3.62.25a8.3,8.3,0,0,1-2.5-1.25C7.41,32.48,7,32,6.14,32c0,0-.31,0-1.37,0h0a9.82,9.82,0,0,0-2-2.75c-.55-.51-.67-.45-1-.87a4.34,4.34,0,0,1-.75-2c-.41-2-.64-1.68-.87-3.12a13.61,13.61,0,0,1,0-3.87A13.43,13.43,0,0,1,.77,16.1c.57-1.67,1.14-2,1.13-3.25s-.47-1.88-.25-2S3,12.15,3.27,12s-.42-1.47,0-1.87,2,.46,2.25.63c2.79,1.61,6.37,1.62,11.25,1.63,3.28,0,5.17-.46,9.38,0,1.09.12,3.22.4,3.38,1.25S28,15.27,28.14,15.48s2-.68,3.23-1.3l.59-.3.06,0c.33-.06.87,1.5.88,1.5h0a8.5,8.5,0,0,0-1.13,3c-.15,1.15.09,2.7.75,2.88.5.13,1.27-.52,1.5-1.25s-.35-1.19-.25-2.37c0-.21.13-1.5.88-1.75a1.49,1.49,0,0,1,1.38.5c.42.42.49,1,.63,2.13s.13,2.12.13,2.13h0a7.13,7.13,0,0,0,2.38-1.12,7.05,7.05,0,0,0,1.63-2h0l1.63-1.37h0a4,4,0,0,1,.88-1.62A4.76,4.76,0,0,1,45,13.73c1-.33,1.36-.33,1.5-.62s-.33-.73-.25-1.37c.11-.87,1.23-1.59,1.63-1.37s0,.73.38,1.38.92.51,1,.88c.13.59-1.28.87-1.75,2.13-.32.87.21,1.1-.12,2.13a8.51,8.51,0,0,1-1.37,2c-.72.92-.92,1.06-1,1.5-.14.75.27,1.18,0,1.5s-1.22-.1-1.5.25.67,1.27,1,3a4.2,4.2,0,0,1,0,2c-.3,1.06-.91,1.11-2,2.63a9.69,9.69,0,0,0-1.37,2.63A3.81,3.81,0,0,0,40.89,35c.21.54.44.53,1.13,1.38s1.68,2.07,1.38,3.13a1.55,1.55,0,0,1-1.12,1.13c-.29,0-.76-.05-2.5-2.25-.9-1.14.24-1.59-.39-2.35a5.94,5.94,0,0,0-3.86-2c-1-.11-1.41.86-3.37,2.25-2.21,1.57-3.34-.29-5.39,1.15C24.4,39,24.25,42.07,23.39,41.73Z" transform="translate(0.5 -9.48)"/><path class="cls-2" d="M26.75,37.38" transform="translate(0.5 -9.48)"/></svg>